<svg width="20" height="20" viewBox="0 0 20 20" fill="none" xmlns="http://www.w3.org/2000/svg">
<path d="M17.04 0.760254H2.96C1.7456 0.760254 0.760002 1.74585 0.760002 2.96025V17.0403C0.760002 18.2547 1.7456 19.2403 2.96 19.2403H17.04C18.2544 19.2403 19.24 18.2547 19.24 17.0403V2.96025C19.24 1.74585 18.2544 0.760254 17.04 0.760254ZM6.48 7.80025V16.1603H3.84V7.80025H6.48ZM3.84 5.36705C3.84 4.75105 4.368 4.28025 5.16 4.28025C5.952 4.28025 6.4492 4.75105 6.48 5.36705C6.48 5.98305 5.9872 6.48025 5.16 6.48025C4.368 6.48025 3.84 5.98305 3.84 5.36705ZM16.16 16.1603H13.52C13.52 16.1603 13.52 12.0859 13.52 11.7603C13.52 10.8803 13.08 10.0003 11.98 9.98265H11.9448C10.88 9.98265 10.44 10.8891 10.44 11.7603C10.44 12.1607 10.44 16.1603 10.44 16.1603H7.8V7.80025H10.44V8.92665C10.44 8.92665 11.2892 7.80025 12.9964 7.80025C14.7432 7.80025 16.16 9.00145 16.16 11.4347V16.1603Z" fill="#63ACFC"/>
</svg>
